<svg width="26" height="24" viewBox="0 0 26 24" fill="none" xmlns="http://www.w3.org/2000/svg">
<path fill-rule="evenodd" clip-rule="evenodd" d="M2.28176 6.21107C2.26778 6.47107 2.25674 6.64307 2.51473 6.77107C2.70449 6.86935 2.82851 7.06036 2.84103 7.27374C2.85354 7.48711 2.75271 7.69128 2.57571 7.81108C2.45016 7.88055 2.38174 8.02141 2.40469 8.16307C2.55666 10.1821 2.68472 12.2041 2.86068 14.2211C2.87289 15.0935 2.69509 15.9582 2.33968 16.755C2.31869 16.8161 2.23971 16.8551 2.18771 16.9071C2.1437 16.8601 2.07668 16.8211 2.0577 16.7661C1.69051 15.9226 1.51723 15.0074 1.55074 14.088C1.73171 12.3251 1.81271 10.5511 1.93569 8.78207C1.9457 8.63707 1.96572 8.49307 1.97768 8.34807C2.03872 8.12491 1.95412 7.88739 1.76577 7.75307C1.60928 7.62285 1.53091 7.42111 1.55856 7.21936C1.5862 7.01761 1.7159 6.84436 1.90176 6.76106C2.16268 6.64508 2.11971 6.43607 2.13168 6.26108C2.13168 6.18907 1.96566 6.08807 1.85867 6.03207C1.61965 5.90607 1.35867 5.82208 1.12868 5.68008C0.746666 5.44008 0.743675 5.08008 1.13467 4.85507C1.49136 4.66281 1.8586 4.49086 2.23464 4.34007C5.33065 2.99741 8.42764 1.65674 11.5257 0.318085C12.4466 -0.100662 13.5031 -0.102844 14.4257 0.312073C17.7984 1.77008 21.1703 3.22874 24.5416 4.68808C24.8096 4.80408 25.1216 4.92609 25.1177 5.27008C25.1138 5.61408 24.8037 5.72908 24.5347 5.84607C23.4527 6.31607 22.3717 6.78708 21.2857 7.24608C21.1167 7.29283 21.0075 7.45612 21.0286 7.63008C21.0416 8.58008 21.0097 9.53009 21.0467 10.4801C21.0983 10.8617 21.1842 11.2379 21.3036 11.6041C21.8667 14.1436 21.3767 16.8029 19.9456 18.9751C18.9332 20.7535 17.3407 22.1303 15.4346 22.8751C13.0449 23.8105 10.3333 23.3383 8.4006 21.6501C6.24392 19.9619 4.84206 17.4896 4.50057 14.7721C4.31673 13.4809 4.43697 12.1646 4.85159 10.9281C4.90487 10.7636 4.93319 10.592 4.93557 10.4191C4.94357 9.48808 4.93557 8.55708 4.94357 7.62608C4.96938 7.46231 4.86965 7.30481 4.71059 7.25809C3.91573 6.92609 3.12173 6.57307 2.28176 6.21107Z" fill="#E9AE24"/>
</svg>
